<svg width="42" height="42" viewBox="0 0 42 42" fill="none" xmlns="http://www.w3.org/2000/svg">
<g clip-path="url(#clip0_1_3372)">
<path d="M19.3594 41.9999C18.8733 41.8262 18.3553 41.8467 17.8538 41.7696C13.9914 41.1723 10.5617 39.6126 7.57499 37.1081C4.08878 34.1841 1.76189 30.5055 0.626204 26.0907C0.203789 24.4446 -0.0089608 22.7709 0.000289173 21.0703C0.00440027 20.3044 0.501843 19.7677 1.21306 19.7615C1.93353 19.7554 2.44536 20.2735 2.46181 21.0354C2.57589 26.3899 4.55744 30.927 8.46915 34.5851C11.0879 37.0341 14.1754 38.6328 17.7232 39.2085C24.7563 40.3487 30.5684 38.0673 35.2612 32.7786C35.4606 32.5545 35.6332 32.3067 35.8172 32.0692C35.8408 32.0384 35.8532 31.9983 35.884 31.9366C35.0834 31.9818 34.3023 32.0415 33.5211 32.0661C32.74 32.0908 32.184 31.6025 32.1573 30.9095C32.1285 30.1651 32.6198 29.6572 33.4184 29.6038C34.9446 29.502 36.4729 29.4239 37.9961 29.2881C38.8594 29.2121 39.586 29.8701 39.5562 30.7512C39.4997 32.39 39.5419 34.0319 39.5398 35.6728C39.5388 36.4624 39.031 36.9981 38.2982 36.9929C37.585 36.9888 37.0844 36.4542 37.0793 35.6903C37.0772 35.2986 37.0793 34.9079 37.0793 34.4288C36.4811 35.1032 35.9303 35.6995 35.3352 36.2547C32.5674 38.8364 29.3463 40.579 25.6659 41.4591C24.6864 41.6935 23.6946 41.8786 22.6822 41.9207C22.6082 41.9238 22.5127 41.8868 22.4777 41.9989H19.3605L19.3594 41.9999Z" fill="#1C4741"  />
<path d="M41.9999 21.3214C41.5683 22.112 41.0256 22.3907 40.3709 22.1573C39.8313 21.965 39.5487 21.5569 39.5384 20.9328C39.4932 18.1846 38.9505 15.5413 37.7254 13.0758C35.1046 7.80052 30.9637 4.25862 25.2092 2.98683C17.6016 1.30687 11.3096 3.75792 6.34027 9.70872C6.27038 9.792 6.20974 9.8835 6.14911 9.97295C6.13575 9.99249 6.13883 10.0233 6.13575 10.0459C6.93946 10.0017 7.74421 9.94108 8.54896 9.91846C9.28485 9.8979 9.82854 10.414 9.84396 11.1018C9.8604 11.8123 9.37118 12.3284 8.63632 12.3767C7.08232 12.4795 5.52833 12.5844 3.97536 12.6872C3.06167 12.7479 2.46351 12.1968 2.46248 11.2869C2.46042 9.63264 2.46042 7.97736 2.46248 6.3231C2.46248 5.52733 2.96198 4.98962 3.6917 4.98962C4.42244 4.98962 4.91989 5.5263 4.92297 6.32104C4.92503 6.70042 4.92297 7.08083 4.92297 7.5476C5.60027 6.79398 6.23647 6.11028 6.93021 5.48518C10.0012 2.71643 13.5635 0.878142 17.6478 0.272575C25.2328 -0.852195 31.6379 1.52072 36.7768 7.19701C39.5744 10.2876 41.1942 13.9662 41.8129 18.0869C41.8797 18.5352 41.8602 18.9958 41.9999 19.4348V21.3224V21.3214Z" fill="#1C4741" />
<path d="M31.801 20.5397C31.794 26.8133 26.7198 31.8351 20.3999 31.824C14.2522 31.813 9.19106 26.6944 9.20315 20.5004C9.21523 14.2531 14.3106 9.21306 20.6023 9.22414C26.758 9.23522 31.8081 14.3386 31.801 20.5387V20.5397ZM24.1258 29.8775C25.0602 29.5946 25.8588 29.0629 26.6402 28.502C26.8013 28.3862 26.6896 28.3167 26.5989 28.2553C26.2797 28.0357 25.9575 27.8213 25.6352 27.6078C25.5345 27.5413 25.4409 27.492 25.3734 27.6571C25.0482 28.4466 24.5638 29.1434 24.1006 29.8534C24.0694 29.8695 24.0351 29.8856 24.0824 29.9198C24.0855 29.9218 24.1106 29.8926 24.1247 29.8785L24.1258 29.8775ZM16.8764 29.8775C16.8915 29.8916 16.9167 29.9208 16.9197 29.9188C16.9671 29.8846 16.9328 29.8685 16.9026 29.8514C16.4384 29.1434 15.955 28.4446 15.6288 27.6571C15.5774 27.5323 15.513 27.5212 15.3992 27.5866C15.0417 27.7941 14.7013 28.0247 14.374 28.2764C14.2774 28.3509 14.2411 28.4144 14.363 28.502C15.1434 29.0659 15.9439 29.5936 16.8774 29.8775H16.8764ZM24.1258 11.1717C24.1106 11.1576 24.0865 11.1284 24.0835 11.1304C24.0361 11.1646 24.0704 11.1807 24.1006 11.1978C24.5578 11.9138 25.0502 12.6107 25.3704 13.4052C25.4308 13.5542 25.5224 13.5502 25.6342 13.4746C25.9665 13.2501 26.2958 13.0225 26.6291 12.8C26.7419 12.7244 26.75 12.665 26.6342 12.5774C25.8628 11.9924 25.0562 11.4717 24.1258 11.1727V11.1717ZM28.6421 21.1268C28.1024 21.1268 27.5626 21.1348 27.0229 21.1227C26.8144 21.1177 26.7449 21.1822 26.7349 21.3956C26.6563 23.0028 26.4318 24.5868 25.9494 26.1265C25.896 26.2957 25.9283 26.4034 26.0954 26.494C26.5818 26.7569 27.041 27.065 27.471 27.4114C27.6381 27.5453 27.7328 27.5272 27.8718 27.3772C28.3098 26.9059 28.6925 26.3964 29.0358 25.8546C29.8616 24.5495 30.3258 23.1196 30.5141 21.594C30.5715 21.1298 30.5655 21.1288 30.1103 21.1278C29.6209 21.1278 29.1315 21.1278 28.6411 21.1278L28.6421 21.1268ZM12.3661 19.9204C12.8938 19.9204 13.4214 19.9083 13.9481 19.9254C14.1948 19.9335 14.2603 19.8509 14.2713 19.6092C14.3459 18.0273 14.5754 16.4694 15.0467 14.9539C15.1122 14.7445 15.0578 14.6367 14.8685 14.536C14.3912 14.2833 13.9441 13.9781 13.5252 13.6388C13.353 13.4988 13.2633 13.531 13.1274 13.6771C12.6722 14.1654 12.2735 14.6951 11.922 15.2621C11.1235 16.552 10.6693 17.9598 10.4881 19.4602C10.4327 19.9194 10.4387 19.9204 10.8969 19.9214C11.3863 19.9214 11.8757 19.9214 12.3661 19.9214V19.9204ZM28.628 19.9204C29.1678 19.9204 29.7065 19.9083 30.2452 19.9254C30.4899 19.9335 30.5564 19.8419 30.5222 19.6203C30.4688 19.2739 30.4366 18.9245 30.3681 18.5821C30.0005 16.7464 29.1768 15.1402 27.9282 13.7455C27.7338 13.529 27.6079 13.525 27.3884 13.7093C27.0047 14.0315 26.5828 14.3074 26.1377 14.54C25.9514 14.6377 25.8759 14.7455 25.9424 14.9539C26.4318 16.4906 26.6523 18.0736 26.7339 19.6787C26.7439 19.8842 26.8255 19.9275 27.0088 19.9244C27.5475 19.9154 28.0873 19.9214 28.627 19.9214L28.628 19.9204ZM12.3802 21.1268C11.8284 21.1268 11.2765 21.1338 10.7247 21.1227C10.5233 21.1187 10.4508 21.1892 10.48 21.3836C10.5324 21.742 10.5636 22.1046 10.6341 22.46C11.0016 24.3099 11.8334 25.9261 13.0972 27.3248C13.2674 27.5131 13.3781 27.5302 13.5795 27.3631C13.9843 27.0267 14.4244 26.7337 14.8926 26.491C15.0749 26.3964 15.1182 26.2806 15.0608 26.0983C14.5724 24.5616 14.3499 22.9786 14.2683 21.3745C14.2582 21.1761 14.1888 21.1197 13.9984 21.1238C13.4597 21.1338 12.92 21.1278 12.3812 21.1278L12.3802 21.1268ZM17.679 19.9204C18.3063 19.9204 18.9337 19.9093 19.5611 19.9254C19.8128 19.9325 19.9095 19.8761 19.9055 19.5992C19.8893 18.5197 19.8893 17.4402 19.9055 16.3617C19.9095 16.0888 19.7967 16.0213 19.558 16.0072C18.5249 15.9478 17.529 15.7082 16.5703 15.3285C16.2873 15.2167 16.2108 15.2983 16.1403 15.5561C15.7697 16.9145 15.5472 18.2941 15.4797 19.7009C15.4697 19.9154 15.5693 19.9204 15.7224 19.9204C16.3749 19.9174 17.0275 19.9194 17.68 19.9194L17.679 19.9204ZM23.2869 19.9204C23.9515 19.9204 24.6162 19.9184 25.2808 19.9214C25.4369 19.9214 25.5406 19.9103 25.5285 19.7019C25.4469 18.273 25.2344 16.8672 24.8407 15.4886C24.7803 15.2792 24.6997 15.251 24.5044 15.3255C23.5054 15.7082 22.4763 15.9609 21.4039 16.0123C21.1944 16.0223 21.0967 16.0928 21.0997 16.3285C21.1108 17.4321 21.1128 18.5358 21.0997 19.6384C21.0967 19.8862 21.1924 19.9264 21.4079 19.9234C22.0342 19.9123 22.6616 19.9194 23.2889 19.9194L23.2869 19.9204ZM17.6981 21.1268C17.0456 21.1268 16.3941 21.1258 15.7415 21.1268C15.6106 21.1268 15.4636 21.0875 15.4757 21.3231C15.5472 22.7531 15.7667 24.1578 16.1534 25.5384C16.2158 25.763 16.2974 25.7992 16.5139 25.7166C17.5008 25.34 18.5168 25.0853 19.5772 25.0359C19.7997 25.0258 19.9075 24.9614 19.9034 24.7016C19.8883 23.611 19.8883 22.5194 19.9034 21.4289C19.9065 21.1691 19.8118 21.1177 19.5782 21.1227C18.9518 21.1358 18.3245 21.1278 17.6971 21.1278L17.6981 21.1268ZM23.3383 21.1268C22.6988 21.1268 22.0594 21.1358 21.42 21.1217C21.1823 21.1167 21.0947 21.1751 21.0987 21.4309C21.1128 22.5094 21.1159 23.5879 21.0967 24.6664C21.0917 24.9604 21.2105 25.0279 21.4643 25.0389C22.4854 25.0873 23.4702 25.3259 24.4198 25.6915C24.7058 25.8012 24.7944 25.7428 24.8699 25.4639C25.2365 24.1186 25.4459 22.75 25.5285 21.3594C25.5426 21.1228 25.4207 21.1248 25.2566 21.1258C24.6172 21.1288 23.9777 21.1268 23.3383 21.1268ZM21.1038 12.6489C21.1038 13.2511 21.1189 13.8543 21.0967 14.4555C21.0867 14.7414 21.1682 14.8331 21.4532 14.7988C22.3393 14.6911 23.2033 14.5048 24.0432 14.1977C24.2788 14.1111 24.3161 14.0084 24.2073 13.7838C23.8911 13.1252 23.5397 12.4898 23.0724 11.9279C22.6122 11.3741 22.0926 10.8907 21.3988 10.6269C21.1521 10.5332 21.0947 10.5967 21.0987 10.8424C21.1098 11.4446 21.1028 12.0467 21.1028 12.6489H21.1038ZM19.8974 28.3711C19.8974 27.7689 19.8823 27.1657 19.9034 26.5645C19.9135 26.2836 19.8078 26.2211 19.557 26.2493C18.6578 26.35 17.7807 26.5424 16.9318 26.8586C16.7083 26.9422 16.6921 27.0509 16.7878 27.2543C17.1121 27.9361 17.4806 28.5906 17.969 29.1686C18.4091 29.6902 18.9095 30.1394 19.556 30.4032C19.8108 30.5079 19.9115 30.4848 19.9024 30.1766C19.8843 29.5744 19.8974 28.9722 19.8974 28.3701V28.3711ZM21.1038 28.357C21.1038 28.8715 21.1038 29.3861 21.1038 29.9007C21.1038 30.5844 21.1249 30.6036 21.7352 30.2632C22.9828 29.5664 23.6605 28.3993 24.2516 27.1647C24.3241 27.0126 24.2546 26.9361 24.1157 26.8817C23.2346 26.5394 22.3222 26.338 21.3817 26.2493C21.1722 26.2292 21.0947 26.2926 21.0987 26.5132C21.1118 27.1274 21.1028 27.7427 21.1028 28.357H21.1038ZM19.8974 12.7003C19.8974 12.2361 19.9075 11.7718 19.8934 11.3086C19.8863 11.0679 20.0172 10.7175 19.8188 10.6148C19.6074 10.505 19.3335 10.7417 19.114 10.8806C17.972 11.5986 17.3124 12.6993 16.7516 13.8785C16.666 14.0587 16.7697 14.1252 16.9137 14.1795C17.7726 14.5068 18.6618 14.6981 19.5731 14.8009C19.847 14.8321 19.9115 14.7284 19.9034 14.4696C19.8853 13.8805 19.8974 13.2904 19.8974 12.7013V12.7003ZM16.9086 11.1988C15.9752 11.511 15.1353 11.9883 14.3589 12.5855C14.222 12.6912 14.2975 12.7456 14.3902 12.805C14.7164 13.0155 15.0447 13.2229 15.37 13.4354C15.5039 13.523 15.5845 13.5089 15.6529 13.3518C15.9832 12.5895 16.4253 11.8927 16.9107 11.1988H16.9086Z" fill="#1C4741" stroke="#1C4741"/>
<path d="M28.6411 21.1278C29.1305 21.1278 29.6199 21.1278 30.1103 21.1278C30.5655 21.1278 30.5715 21.1298 30.5141 21.594C30.3258 23.1196 29.8616 24.5495 29.0358 25.8546C28.6925 26.3963 28.3098 26.9069 27.8718 27.3772C27.7318 27.5272 27.6371 27.5453 27.471 27.4114C27.041 27.065 26.5808 26.7579 26.0954 26.494C25.9283 26.4034 25.896 26.2956 25.9494 26.1265C26.4318 24.5858 26.6563 23.0018 26.7349 21.3956C26.7449 21.1832 26.8154 21.1187 27.0229 21.1227C27.5626 21.1348 28.1024 21.1268 28.6421 21.1268L28.6411 21.1278Z" fill="#153A35"/>
<path d="M12.3668 19.9215C11.8774 19.9215 11.388 19.9215 10.8976 19.9215C10.4394 19.9215 10.4334 19.9205 10.4888 19.4603C10.67 17.9599 11.1242 16.5521 11.9227 15.2621C12.2731 14.6952 12.6719 14.1655 13.1281 13.6771C13.264 13.5311 13.3547 13.4999 13.5258 13.6389C13.9448 13.9782 14.3919 14.2844 14.8692 14.5361C15.0595 14.6368 15.1129 14.7445 15.0474 14.954C14.5761 16.4695 14.3465 18.0283 14.272 19.6093C14.2609 19.851 14.1955 19.9336 13.9488 19.9255C13.4221 19.9084 12.8945 19.9205 12.3668 19.9205V19.9215Z" fill="#153A35"/>
<path d="M28.6282 19.9215C28.0884 19.9215 27.5497 19.9154 27.0099 19.9245C26.8267 19.9275 26.7451 19.8842 26.735 19.6788C26.6535 18.0736 26.4329 16.4906 25.9435 14.954C25.8771 14.7455 25.9536 14.6368 26.1389 14.5401C26.584 14.3075 27.0059 14.0316 27.3896 13.7093C27.6091 13.525 27.735 13.5281 27.9293 13.7456C29.178 15.1403 30.0017 16.7464 30.3693 18.5822C30.4377 18.9245 30.47 19.275 30.5233 19.6204C30.5576 19.8419 30.4911 19.9335 30.2464 19.9255C29.7077 19.9074 29.1679 19.9204 28.6292 19.9204L28.6282 19.9215Z" fill="#153A35"/>
<path d="M12.3798 21.1278C12.9195 21.1278 13.4582 21.1348 13.997 21.1237C14.1873 21.1197 14.2568 21.1771 14.2669 21.3745C14.3474 22.9796 14.571 24.5616 15.0594 26.0983C15.1178 26.2805 15.0735 26.3963 14.8912 26.491C14.4229 26.7337 13.9829 27.0267 13.5781 27.363C13.3767 27.5302 13.2669 27.5131 13.0957 27.3248C11.8309 25.9261 11.0002 24.3098 10.6326 22.46C10.5621 22.1055 10.5309 21.742 10.4786 21.3835C10.4504 21.1892 10.5219 21.1187 10.7233 21.1227C11.2751 21.1338 11.8269 21.1267 12.3787 21.1267L12.3798 21.1278Z" fill="#153A35"/>
<path d="M17.6795 19.9215C17.027 19.9215 16.3744 19.9195 15.7219 19.9225C15.5688 19.9225 15.4691 19.9185 15.4792 19.703C15.5467 18.2962 15.7692 16.9166 16.1398 15.5582C16.2103 15.3004 16.2868 15.2188 16.5698 15.3306C17.5284 15.7103 18.5254 15.9489 19.5575 16.0093C19.7962 16.0234 19.909 16.0899 19.9049 16.3638C19.8898 17.4433 19.8888 18.5228 19.9049 19.6013C19.909 19.8772 19.8133 19.9336 19.5606 19.9275C18.9332 19.9114 18.3058 19.9225 17.6785 19.9225L17.6795 19.9215Z" fill="#153A35"/>
<path d="M23.2869 19.9216C22.6596 19.9216 22.0332 19.9145 21.4059 19.9256C21.1904 19.9296 21.0947 19.8884 21.0977 19.6406C21.1108 18.537 21.1098 17.4333 21.0977 16.3307C21.0957 16.095 21.1924 16.0245 21.4018 16.0145C22.4743 15.9641 23.5034 15.7104 24.5024 15.3277C24.6977 15.2532 24.7783 15.2814 24.8387 15.4908C25.2334 16.8684 25.4449 18.2752 25.5265 19.7041C25.5386 19.9125 25.4338 19.9246 25.2788 19.9236C24.6141 19.9206 23.9495 19.9226 23.2849 19.9226L23.2869 19.9216Z" fill="#153A35"/>
<path d="M17.6987 21.1279C18.326 21.1279 18.9524 21.137 19.5797 21.1229C19.8134 21.1179 19.908 21.1682 19.905 21.429C19.8909 22.5196 19.8899 23.6112 19.905 24.7017C19.909 24.9615 19.8003 25.026 19.5787 25.0361C18.5184 25.0854 17.5023 25.3412 16.5155 25.7168C16.299 25.7994 16.2184 25.7631 16.155 25.5385C15.7683 24.159 15.5498 22.7542 15.4773 21.3233C15.4652 21.0876 15.6122 21.1279 15.7431 21.1269C16.3956 21.1249 17.0472 21.1269 17.6997 21.1269L17.6987 21.1279Z" fill="#153A35"/>
<path d="M23.3394 21.1279C23.9788 21.1279 24.6183 21.1299 25.2577 21.1269C25.4218 21.1269 25.5437 21.1239 25.5296 21.3605C25.447 22.7512 25.2386 24.1197 24.871 25.465C24.7945 25.7439 24.7069 25.8023 24.4209 25.6926C23.4713 25.327 22.4875 25.0884 21.4654 25.04C21.2116 25.028 21.0928 24.9605 21.0978 24.6675C21.1169 23.589 21.1129 22.5105 21.0998 21.432C21.0968 21.1762 21.1834 21.1178 21.4211 21.1229C22.0605 21.1369 22.6999 21.1279 23.3394 21.1279Z" fill="#153A35"/>
<path d="M21.1045 12.6499C21.1045 12.0478 21.1126 11.4456 21.1005 10.8434C21.0954 10.5977 21.1539 10.5342 21.4006 10.6279C22.0944 10.8917 22.614 11.3751 23.0742 11.9289C23.5404 12.4908 23.8929 13.1262 24.2091 13.7848C24.3168 14.0094 24.2796 14.1131 24.0449 14.1987C23.2051 14.5058 22.3411 14.6921 21.4549 14.7999C21.17 14.8341 21.0884 14.7425 21.0985 14.4565C21.1206 13.8553 21.1055 13.2521 21.1055 12.6499H21.1045Z" fill="#153A35"/>
<path d="M19.8982 28.3722C19.8982 28.9744 19.8851 29.5776 19.9032 30.1788C19.9122 30.4869 19.8126 30.5091 19.5568 30.4054C18.9103 30.1405 18.4098 29.6924 17.9698 29.1708C17.4824 28.5928 17.1128 27.9382 16.7886 27.2565C16.6919 27.0541 16.708 26.9443 16.9326 26.8608C17.7825 26.5446 18.6585 26.3522 19.5578 26.2515C19.8075 26.2233 19.9133 26.2858 19.9042 26.5667C19.883 27.1679 19.8982 27.7711 19.8982 28.3733V28.3722Z" fill="#153A35"/>
<path d="M21.1039 28.358C21.1039 27.7427 21.1119 27.1284 21.0998 26.5142C21.0948 26.2936 21.1733 26.2302 21.3828 26.2503C22.3223 26.34 23.2357 26.5414 24.1168 26.8827C24.2557 26.9371 24.3262 27.0136 24.2527 27.1657C23.6616 28.3993 22.9839 29.5674 21.7363 30.2642C21.126 30.6056 21.1049 30.5854 21.1049 29.9017C21.1049 29.3871 21.1049 28.8726 21.1049 28.358H21.1039Z" fill="#153A35"/>
<path d="M19.8976 12.7013C19.8976 13.2904 19.8855 13.8805 19.9036 14.4695C19.9117 14.7283 19.8472 14.8321 19.5733 14.8008C18.662 14.6981 17.7718 14.5068 16.9139 14.1795C16.7699 14.1252 16.6661 14.0587 16.7517 13.8784C17.3116 12.7003 17.9722 11.5996 19.1141 10.8806C19.3347 10.7427 19.6076 10.505 19.819 10.6148C20.0174 10.7175 19.8865 11.0689 19.8935 11.3086C19.9076 11.7718 19.8976 12.237 19.8976 12.7003V12.7013Z" fill="#153A35"/>
<path d="M24.1248 11.1726C25.0563 11.4717 25.8629 11.9923 26.6332 12.5774C26.749 12.665 26.7409 12.7244 26.6282 12.7999C26.2949 13.0235 25.9656 13.2501 25.6333 13.4746C25.5215 13.5501 25.4298 13.5552 25.3694 13.4051C25.0492 12.6106 24.5568 11.9138 24.0996 11.1978L24.1248 11.1716V11.1726Z" fill="#153A35"/>
<path d="M16.8755 29.8787C15.9421 29.5937 15.1425 29.0661 14.3621 28.5022C14.2413 28.4146 14.2765 28.3511 14.3732 28.2766C14.7004 28.0249 15.0408 27.7943 15.3983 27.5868C15.5111 27.5214 15.5755 27.5324 15.6279 27.6573C15.9552 28.4458 16.4375 29.1436 16.9017 29.8515L16.8755 29.8777V29.8787Z" fill="#153A35"/>
<path d="M24.1016 29.8524C24.5648 29.1425 25.0491 28.4457 25.3744 27.6572C25.4429 27.492 25.5365 27.5414 25.6362 27.6078C25.9585 27.8223 26.2807 28.0368 26.5999 28.2553C26.6895 28.3178 26.8013 28.3862 26.6412 28.502C25.8588 29.0639 25.0612 29.5956 24.1267 29.8776L24.1016 29.8514V29.8524Z" fill="#153A35"/>
<path d="M16.911 11.199C16.4257 11.8928 15.9846 12.5896 15.6533 13.3519C15.5848 13.509 15.5053 13.5241 15.3703 13.4355C15.0461 13.223 14.7168 13.0156 14.3905 12.8051C14.2989 12.7457 14.2234 12.6913 14.3593 12.5856C15.1357 11.9874 15.9765 11.5111 16.909 11.199H16.911Z" fill="#153A35"/>
<path d="M24.1011 11.1989C24.0709 11.1818 24.0366 11.1657 24.0839 11.1314C24.087 11.1294 24.1121 11.1586 24.1262 11.1727L24.1011 11.1989Z" fill="#153A35"/>
<path d="M16.9031 29.8513C16.9333 29.8684 16.9686 29.8846 16.9203 29.9188C16.9172 29.9208 16.8921 29.8926 16.877 29.8775L16.9031 29.8513Z" fill="#153A35"/>
<path d="M24.1262 29.8777C24.1111 29.8918 24.0859 29.921 24.0839 29.919C24.0366 29.8848 24.0708 29.8687 24.102 29.8525L24.1272 29.8777H24.1262Z" fill="#153A35"/>
</g>
<defs>

</defs>
</svg>
